# xmcd
# Copyright (C) 1995-1998 Ti Kan
#
# Track frame offsets:
#       150
#       15404
#       41059
#       59660
#       77769
#       93415
#       113773
#       132670
#       155320
#       173841
#
# Disc length: 2919 seconds
#
# Revision: 0
# Processed by: cddbd v1.5.2PL0 Copyright (c) Steve Scherf et al.
# Submitted via: CD-Import v1.0
#
DISCID=7d0b650a
DTITLE=Svensson - 
DYEAR=04
DGENRE=
TTITLE0=Escort Boy
TTITLE1=Etoile Rouge
TTITLE2=L'hymne
TTITLE3=The Wild Geese
TTITLE4=Reconquista
TTITLE5=Le Mavais Sort
TTITLE6=Les Séraphins
TTITLE7=Kiss My Hands
TTITLE8=Les Bois De Dora
TTITLE9=On Better Days
EXTD=
EXTT0=
EXTT1=
EXTT2=
EXTT3=
EXTT4=
EXTT5=
EXTT6=
EXTT7=
EXTT8=
EXTT9=
PLAYORDER=
